<svg xmlns="http://www.w3.org/2000/svg" xmlns:xlink="http://www.w3.org/1999/xlink" viewBox="0 0 98 95"><defs><style>.cls-1{isolation:isolate;}.cls-2{fill:#5b51f5;}.cls-3{fill:#f8d554;}.cls-4{fill:#d5a9ff;}.cls-5{fill:#b86cf7;}.cls-6,.cls-7{mix-blend-mode:overlay;}.cls-6{fill:url(#White_Black);}.cls-8{fill:url(#White_Black-2);}.cls-9{fill:url(#White_Black-3);}.cls-10{fill:url(#White_Black-4);}.cls-11{fill:url(#White_Black-5);}.cls-12{fill:url(#White_Black-6);}.cls-13{fill:url(#White_Black-7);}.cls-14{fill:url(#White_Black-8);}.cls-15{fill:url(#White_Black-9);}.cls-16{fill:url(#White_Black-10);}.cls-17{fill:url(#White_Black-11);}.cls-18{fill:url(#White_Black-12);}.cls-19{fill:url(#White_Black-13);}.cls-20{fill:url(#White_Black-14);}.cls-21{fill:url(#White_Black-15);}.cls-22{fill:url(#White_Black-16);}.cls-23{fill:url(#White_Black-17);}.cls-24{fill:url(#White_Black-18);}</style><linearGradient id="White_Black" x1="1746.67253" y1="176.88029" x2="1765.28667" y2="176.88029" gradientTransform="translate(-1701.61883 -177.82632) rotate(1.60735)" gradientUnits="userSpaceOnUse"><stop offset="0" stop-color="#fff"/><stop offset="1"/></linearGradient><linearGradient id="White_Black-2" x1="2629.67374" y1="-177.35733" x2="2663.07444" y2="-177.35733" gradientTransform="translate(155.22559 2725.71586) rotate(-88.39265)" xlink:href="#White_Black"/><linearGradient id="White_Black-3" x1="2629.67374" y1="-184.87039" x2="2663.07444" y2="-184.87039" gradientTransform="translate(155.22559 2725.71586) rotate(-88.39265)" xlink:href="#White_Black"/><linearGradient id="White_Black-4" x1="2685.67755" y1="-184.87039" x2="2719.07825" y2="-184.87039" gradientTransform="translate(155.22559 2725.71586) rotate(-88.39265)" xlink:href="#White_Black"/><linearGradient id="White_Black-5" x1="2685.67755" y1="-177.35733" x2="2719.07825" y2="-177.35733" gradientTransform="translate(155.22559 2725.71586) rotate(-88.39265)" xlink:href="#White_Black"/><linearGradient id="White_Black-6" x1="2649.66296" y1="-193.88736" x2="2673.28082" y2="-193.88736" gradientTransform="translate(155.22559 2725.71586) rotate(-88.39265)" xlink:href="#White_Black"/><linearGradient id="White_Black-7" x1="2649.66296" y1="-193.89047" x2="2673.28082" y2="-193.89047" gradientTransform="translate(155.22559 2725.71586) rotate(-88.39265)" xlink:href="#White_Black"/><linearGradient id="White_Black-8" x1="2674.95189" y1="-193.88892" x2="2698.57287" y2="-193.88892" gradientTransform="translate(155.22559 2725.71586) rotate(-88.39265)" xlink:href="#White_Black"/><linearGradient id="White_Black-9" x1="2674.955" y1="-193.88892" x2="2698.57598" y2="-193.88892" gradientTransform="translate(155.22559 2725.71586) rotate(-88.39265)" xlink:href="#White_Black"/><linearGradient id="White_Black-10" x1="2649.792" y1="-168.72747" x2="2673.40987" y2="-168.72747" gradientTransform="translate(155.22559 2725.71586) rotate(-88.39265)" xlink:href="#White_Black"/><linearGradient id="White_Black-11" x1="2649.792" y1="-168.72436" x2="2673.40987" y2="-168.72436" gradientTransform="translate(155.22559 2725.71586) rotate(-88.39265)" xlink:href="#White_Black"/><linearGradient id="White_Black-12" x1="2675.08093" y1="-168.72592" x2="2698.70191" y2="-168.72592" gradientTransform="translate(155.22559 2725.71586) rotate(-88.39265)" xlink:href="#White_Black"/><linearGradient id="White_Black-13" x1="2675.08404" y1="-168.72592" x2="2698.70502" y2="-168.72592" gradientTransform="translate(155.22559 2725.71586) rotate(-88.39265)" xlink:href="#White_Black"/><linearGradient id="White_Black-14" x1="2666.84867" y1="-209.2448" x2="2674.36172" y2="-209.2448" gradientTransform="translate(155.22559 2725.71586) rotate(-88.39265)" xlink:href="#White_Black"/><linearGradient id="White_Black-15" x1="2674.36172" y1="-209.2448" x2="2681.87478" y2="-209.2448" gradientTransform="translate(155.22559 2725.71586) rotate(-88.39265)" xlink:href="#White_Black"/><linearGradient id="White_Black-16" x1="2674.29878" y1="-154.01524" x2="2681.81184" y2="-154.01524" gradientTransform="translate(155.22559 2725.71586) rotate(-88.39265)" xlink:href="#White_Black"/><linearGradient id="White_Black-17" x1="2666.78573" y1="-154.01524" x2="2674.29878" y2="-154.01524" gradientTransform="translate(155.22559 2725.71586) rotate(-88.39265)" xlink:href="#White_Black"/><linearGradient id="White_Black-18" x1="2664.12808" y1="-181.57819" x2="2682.74222" y2="-181.57819" gradientTransform="translate(155.22559 2725.71586) rotate(-88.39265)" xlink:href="#White_Black"/></defs><g class="cls-1"><g id="Layer_63" data-name="Layer 63"><path class="cls-2" d="M48.88191,58.60905s16.4556,16.22983-.93689,33.38756Z"/><path class="cls-3" d="M47.945,91.99661s-16.4556-16.22983.93689-33.38756Z"/><path class="cls-2" d="M49.51592,36.01484S33.06032,19.785,50.45281,2.62728Z"/><path class="cls-3" d="M50.45281,2.62728s16.4556,16.22983-.93689,33.38756Z"/><path class="cls-4" d="M48.20244,48.37958s.15965,23.1121-24.271,22.9461Z"/><path class="cls-5" d="M23.9314,71.32568s-.15965-23.11209,24.271-22.9461Z"/><path class="cls-4" d="M48.24941,46.70606s-23.1121.15965-22.9461-24.271Z"/><path class="cls-5" d="M25.30331,22.435s23.1121-.15965,22.9461,24.271Z"/><path class="cls-4" d="M49.75059,48.29394s-1.45547,23.06677,22.9461,24.271Z"/><path class="cls-5" d="M72.69669,72.565s1.45547-23.06677-22.9461-24.271Z"/><path class="cls-4" d="M49.79756,46.62042s23.06676,1.45547,24.271-22.9461Z"/><path class="cls-5" d="M74.0686,23.67432s-23.06677-1.45547-24.271,22.9461Z"/><path class="cls-2" d="M37.77242,47.00559S21.54259,63.46119,4.38486,46.0687Z"/><path class="cls-3" d="M4.38486,46.0687s16.22983-16.4556,33.38756.93689Z"/><path class="cls-2" d="M59.59092,47.6808s16.22983-16.45561,33.38756.93688Z"/><path class="cls-3" d="M92.97848,48.61768S76.74866,65.07329,59.59092,47.6808Z"/><circle class="cls-3" cx="48.70837" cy="48.23939" r="9.30707"/><circle class="cls-6" cx="48.70837" cy="48.23939" r="9.30707"/><circle cx="49.19478" cy="48.26203" r="4.00965"/><path class="cls-2" d="M49.51592,36.01484S33.06032,19.785,50.45281,2.62728Z"/><g class="cls-7"><path class="cls-8" d="M48.88191,58.60905s16.4556,16.22983-.93689,33.38756Z"/><path class="cls-9" d="M47.945,91.99661s-16.4556-16.22983.93689-33.38756Z"/><path class="cls-10" d="M49.51592,36.01484S33.06032,19.785,50.45281,2.62728Z"/><path class="cls-11" d="M50.45281,2.62728s16.4556,16.22983-.93689,33.38756Z"/><path class="cls-12" d="M48.20244,48.37958s.15965,23.1121-24.271,22.9461Z"/><path class="cls-13" d="M23.9314,71.32568s-.15965-23.11209,24.271-22.9461Z"/><path class="cls-14" d="M48.24941,46.70606s-23.1121.15965-22.9461-24.271Z"/><path class="cls-15" d="M25.30331,22.435s23.1121-.15965,22.9461,24.271Z"/><path class="cls-16" d="M49.75059,48.29394s-1.45547,23.06677,22.9461,24.271Z"/><path class="cls-17" d="M72.69669,72.565s1.45547-23.06677-22.9461-24.271Z"/><path class="cls-18" d="M49.79756,46.62042s23.06676,1.45547,24.271-22.9461Z"/><path class="cls-19" d="M74.0686,23.67432s-23.06677-1.45547-24.271,22.9461Z"/><path class="cls-20" d="M37.77242,47.00559S21.54259,63.46119,4.38486,46.0687Z"/><path class="cls-21" d="M4.38486,46.0687s16.22983-16.4556,33.38756.93689Z"/><path class="cls-22" d="M59.59092,47.6808s16.22983-16.45561,33.38756.93688Z"/><path class="cls-23" d="M92.97848,48.61768S76.74866,65.07329,59.59092,47.6808Z"/><circle class="cls-24" cx="48.70837" cy="48.23939" r="9.30707"/><circle class="cls-6" cx="48.70837" cy="48.23939" r="9.30707"/><path class="cls-10" d="M49.51592,36.01484S33.06032,19.785,50.45281,2.62728Z"/></g></g></g></svg>